<?xml version="1.0" standalone="no"?>
<!DOCTYPE svg PUBLIC "-//W3C//DTD SVG 20010904//EN"
 "http://www.w3.org/TR/2001/REC-SVG-20010904/DTD/svg10.dtd">
<svg version="1.0" xmlns="http://www.w3.org/2000/svg"
 width="240.000000pt" height="240.000000pt" viewBox="0 0 240.000000 240.000000"
 preserveAspectRatio="xMidYMid meet">
<metadata>
Created by potrace 1.11, written by Peter Selinger 2001-2013
</metadata>
<g transform="translate(0.000000,240.000000) scale(0.100000,-0.100000)"
fill="#000000" stroke="none">
<path d="M2070 2244 c-169 -133 -343 -330 -493 -560 -36 -56 -123 -202 -193
-325 -70 -123 -128 -225 -130 -227 -1 -2 -113 54 -248 123 -148 77 -246 121
-246 113 0 -12 539 -623 545 -616 1 2 59 131 130 288 267 597 441 913 642
1163 36 45 70 88 76 95 18 23 2 12 -83 -54z"/>
<path d="M1060 2261 c0 -16 8 -20 43 -23 l42 -3 -4 -72 -3 -73 46 0 46 0 0 78
0 79 31 -5 c30 -4 54 12 43 30 -3 4 -59 8 -125 8 -111 0 -119 -1 -119 -19z"/>
<path d="M960 2036 c-286 -64 -521 -250 -657 -521 -183 -363 -106 -822 187
-1115 127 -127 275 -212 455 -260 102 -27 300 -37 413 -21 367 54 658 314 768
686 22 77 27 113 30 250 4 173 -2 175 -31 10 -9 -55 -32 -147 -51 -205 -127
-399 -383 -622 -758 -660 -415 -42 -792 176 -952 552 -50 116 -66 194 -71 344
-5 121 -3 152 16 225 42 166 123 301 257 429 124 118 295 220 469 279 60 20
60 20 20 20 -22 -1 -65 -7 -95 -13z"/>
<path d="M1170 1905 c0 -88 1 -95 20 -95 19 0 20 7 20 95 0 88 -1 95 -20 95
-19 0 -20 -7 -20 -95z"/>
<path d="M362 1098 c3 -21 8 -23 73 -23 65 0 70 2 73 23 3 21 1 22 -73 22 -74
0 -76 -1 -73 -22z"/>
<path d="M1892 1098 c3 -21 9 -23 76 -26 71 -3 72 -3 72 23 0 25 -1 25 -76 25
-72 0 -75 -1 -72 -22z"/>
<path d="M1190 364 c0 -86 2 -95 18 -92 14 3 17 17 20 96 3 87 2 92 -18 92
-19 0 -20 -6 -20 -96z"/>
</g>
</svg>
